<?xml version="1.0" encoding="UTF-8" standalone="no"?>
<!-- Created with Inkscape (http://www.inkscape.org/) -->

<svg
   width="1920"
   height="1080"
   viewBox="0 0 508 285.75001"
   version="1.1"
   id="svg1"
   xml:space="preserve"
   inkscape:version="1.4 (86a8ad7, 2024-10-11)"
   sodipodi:docname="icon.svg"
   inkscape:export-filename="image.png"
   inkscape:export-xdpi="96"
   inkscape:export-ydpi="96"
   xmlns:inkscape="http://www.inkscape.org/namespaces/inkscape"
   xmlns:sodipodi="http://sodipodi.sourceforge.net/DTD/sodipodi-0.dtd"
   xmlns="http://www.w3.org/2000/svg"
   xmlns:svg="http://www.w3.org/2000/svg"><sodipodi:namedview
     id="namedview1"
     pagecolor="#000000"
     bordercolor="#000000"
     borderopacity="0.25"
     inkscape:showpageshadow="2"
     inkscape:pageopacity="0.0"
     inkscape:pagecheckerboard="0"
     inkscape:deskcolor="#d1d1d1"
     inkscape:document-units="mm"
     inkscape:zoom="0.5233761"
     inkscape:cx="1130.1624"
     inkscape:cy="411.74979"
     inkscape:window-width="2560"
     inkscape:window-height="1377"
     inkscape:window-x="1912"
     inkscape:window-y="-8"
     inkscape:window-maximized="1"
     inkscape:current-layer="layer1"
     inkscape:export-bgcolor="#000000ff" /><defs
     id="defs1" /><g
     inkscape:label="Layer 1"
     inkscape:groupmode="layer"
     id="layer1"
     transform="translate(70,-73.499997)"><g
       id="g3"
       transform="translate(0,1.3455575)"><g
         id="g2"
         transform="matrix(1.7920659,0,0,1.7920659,-11.881494,-82.60636)"><path
           style="fill:#ffffff;fill-opacity:1;stroke-width:3.179"
           d="m 52.929498,183.93917 c -4.12392,-4.33783 -5.579726,-9.544 -5.952463,-21.28684 -0.193084,-6.08344 -0.419016,-11.06081 -0.502041,-11.06081 -7.386774,0 -22.129583,3.52172 -22.887543,5.46729 -0.894582,2.29629 9.698621,6.14916 17.060488,6.2051 1.123449,0.01 1.906857,0.52894 1.906857,1.26667 0,1.53165 -0.335908,1.53449 -9.322405,0.0795 -30.4625454,-4.93264 -24.3955514,-16.09204 10.341918,-19.02256 45.068675,-3.80207 73.980901,12.50457 33.727629,19.02255 -8.986494,1.45512 -9.322405,1.45227 -9.322405,-0.0795 0,-0.73772 0.783408,-1.25811 1.906862,-1.26666 7.361865,-0.0558 17.955072,-3.90882 17.060488,-6.2051 -0.757962,-1.94557 -15.500773,-5.46729 -22.887548,-5.46729 -0.08302,0 -0.308744,4.97737 -0.50161,11.06081 -0.510258,16.09512 -5.693848,26.47714 -10.628227,21.28684 z m -6.137245,-45.28669 c 0,-2.92172 0,-2.92172 -5.084947,-2.92172 -2.929942,0 -5.084948,-0.3651 -5.084948,-0.86146 0,-0.90427 17.525722,-22.76631 18.56077,-23.15319 0.720986,-0.26944 18.728849,22.03646 18.728849,23.19901 0,0.44858 -2.28823,0.81564 -5.08495,0.81564 -5.08495,0 -5.08495,0 -5.08495,2.92172 0,2.92172 0,2.92172 -8.474912,2.92172 -8.474912,0 -8.474912,0 -8.474912,-2.92172 z"
           id="path1" /><g
           style="fill:none;stroke:currentColor;stroke-width:2;stroke-linecap:round;stroke-linejoin:round"
           id="g1"
           transform="matrix(4.5490831,0,0,4.5490831,100.45092,93.911003)"><polygon
             points="2,9 2,15 6,15 11,19 11,5 6,9 "
             id="polygon1"
             style="stroke:#ffffff;stroke-opacity:1" /><path
             d="m 19.07,4.93 a 10,10 0 0 1 0,14.14 M 15.54,8.46 a 5,5 0 0 1 0,7.07"
             id="path1-5"
             style="stroke:#ffffff;stroke-opacity:1" /></g></g><text
         xml:space="preserve"
         style="font-size:50.8px;line-height:63.9575px;font-family:'FrontPage Pro Caps';-inkscape-font-specification:'FrontPage Pro Caps, Normal';text-align:justify;text-decoration-color:#000000;letter-spacing:-0.529167px;writing-mode:lr-tb;direction:ltr;text-anchor:start;fill:#ffffff;fill-opacity:1;stroke:#ffffff;stroke-width:0.264583"
         x="-38.654419"
         y="311.67426"
         id="text1"><tspan
           sodipodi:role="line"
           id="tspan1"
           style="font-size:50.8px;line-height:63.9575px;stroke-width:0.264583"
           x="-38.654419"
           y="311.67426">ReviveSuccessSound</tspan></text></g></g></svg>
